<svg xmlns="http://www.w3.org/2000/svg" width="22" height="22" viewBox="0 0 22 22" fill="none" class="checkmark">
  <path fill-rule="evenodd" clip-rule="evenodd" d="M3.22183 3.22182C5.21136 1.23232 7.96273 0 11 0C14.0373 0 16.7886 1.23231 18.7782 3.22182L18.0711 3.92893L18.7782 3.22183C20.7677 5.21136 22 7.96273 22 11C22 14.0373 20.7677 16.7886 18.7782 18.7782C16.7886 20.7677 14.0373 22 11 22C7.96273 22 5.21136 20.7677 3.22183 18.7782L3.92893 18.0711L3.22182 18.7782C1.23231 16.7886 0 14.0373 0 11C0 7.96273 1.23232 5.21136 3.22182 3.22183L3.22183 3.22182ZM11 2C8.51447 2 6.26584 3.00626 4.63603 4.63604C3.00625 6.26585 2 8.51447 2 11C2 13.4855 3.00627 15.7342 4.63604 17.3639C6.26584 18.9937 8.51447 20 11 20C13.4855 20 15.7342 18.9937 17.3639 17.3639C18.9937 15.7342 20 13.4855 20 11C20 8.51447 18.9937 6.26584 17.3639 4.63604C15.7342 3.00627 13.4855 2 11 2ZM16.7071 7.29289C17.0976 7.68342 17.0976 8.31658 16.7071 8.70711L10.7071 14.7071C10.3166 15.0976 9.68342 15.0976 9.29289 14.7071L6.29289 11.7071C5.90237 11.3166 5.90237 10.6834 6.29289 10.2929C6.68342 9.90237 7.31658 9.90237 7.70711 10.2929L10 12.5858L15.2929 7.29289C15.6834 6.90237 16.3166 6.90237 16.7071 7.29289Z" fill="#111111"/>
</svg>
