<svg xmlns="http://www.w3.org/2000/svg" width="24" height="26" viewBox="0 0 24 26" fill="none" class="contact">
  <path d="M23.0863 0.904297C23.2147 0.906941 23.3364 0.93091 23.458 0.98999C23.5834 1.05127 23.6938 1.14359 23.7772 1.25724C23.8191 1.31553 23.832 1.34053 23.7772 1.25724C23.8891 1.40962 23.95 1.59621 23.95 1.78665C23.9477 1.71925 23.9496 1.73965 23.95 1.78665V15.0219C23.95 15.5093 23.5633 15.9043 23.0863 15.9043H5.81359C5.33661 15.9043 4.94995 15.5093 4.94995 15.0219V1.78665C4.94995 1.62868 4.9919 1.47183 5.07079 1.33636C5.23158 1.05957 5.51007 0.910549 5.81359 0.904297H23.0863ZM22.2227 3.55136L14.9681 9.11018C14.6918 9.32194 14.3221 9.34312 14.0271 9.17371L13.9318 9.11018L6.67722 3.55136V14.1396H22.2227V3.55136ZM8.4045 2.669L14.45 7.30136L20.4954 2.669H8.4045Z" fill="#111111"/>
  <path d="M2.91171 6.74609H5.44806C6.17459 6.74609 6.84397 7.1401 7.19668 7.77536L8.41989 9.97878C8.7402 10.5558 8.75526 11.2537 8.4601 11.8439L7.44991 13.8622L7.46564 13.9116L7.56044 14.1795C7.75079 14.682 8.01568 15.1854 8.364 15.6514C8.51746 15.8568 8.68432 16.0506 8.86506 16.2314C9.04359 16.4099 9.23478 16.5747 9.43705 16.7264C9.90325 17.0759 10.4067 17.341 10.9092 17.5308C11.0074 17.5679 11.0971 17.5992 11.1769 17.6252L11.2249 17.6402L13.2462 16.6307C13.7832 16.3621 14.4092 16.3504 14.9523 16.5915L15.1125 16.6715L17.3222 17.9C17.9568 18.2529 18.3504 18.9219 18.3504 19.648V22.1847C18.3504 24.1601 16.4805 25.5764 14.6067 24.9441C10.8616 23.6804 7.54373 21.9811 5.32956 19.7669C3.11539 17.5527 1.41604 14.2349 0.152342 10.4898C-0.479906 8.61597 0.936413 6.74609 2.91171 6.74609Z" fill="white"/>
  <path d="M5.44806 6.74609H2.91171C0.936413 6.74609 -0.479906 8.61597 0.152342 10.4898C1.41604 14.2349 3.11539 17.5527 5.32956 19.7669C7.54373 21.9811 10.8616 23.6804 14.6067 24.9441C16.4805 25.5764 18.3504 24.1601 18.3504 22.1847V19.648C18.3504 18.9219 17.9568 18.2529 17.3222 17.9L15.1125 16.6715L14.9523 16.5915C14.4092 16.3504 13.7832 16.3621 13.2462 16.6307L11.2249 17.6402L11.1769 17.6252C11.0971 17.5992 11.0074 17.5679 10.9092 17.5308C10.4067 17.341 9.90325 17.0759 9.43705 16.7264C9.23478 16.5747 9.04359 16.4099 8.86506 16.2314C8.68432 16.0506 8.51746 15.8568 8.364 15.6514C8.01568 15.1854 7.75079 14.682 7.56044 14.1795L7.46564 13.9116L7.44991 13.8622L8.4601 11.8439C8.75526 11.2537 8.7402 10.5558 8.41989 9.97878L7.19668 7.77536C6.84397 7.1401 6.17459 6.74609 5.44806 6.74609ZM2.91171 8.74609H5.44808L6.67127 10.9495L5.49283 13.3064C5.3942 13.5037 5.36355 13.728 5.40566 13.9445C5.55335 14.7038 5.95876 15.774 6.762 16.8488C6.97166 17.1293 7.20097 17.3957 7.45086 17.6456C7.69778 17.8925 7.9607 18.1192 8.23735 18.3266C9.31438 19.1341 10.3872 19.5393 11.1487 19.6854C11.3644 19.7268 11.5877 19.6959 11.7842 19.5977L14.1407 18.4195L16.3504 19.648V22.1847C16.3504 22.8173 15.7983 23.2354 15.2462 23.0491C11.7683 21.8756 8.69003 20.299 6.74378 18.3527C4.79752 16.4064 3.22087 13.3282 2.04737 9.85036C1.86105 9.29816 2.27921 8.74609 2.91171 8.74609Z" fill="#111111"/>
</svg>
