<svg viewBox="0 0 35 36" fill="none" xmlns="http://www.w3.org/2000/svg" class="cta">
    <path
        d="M33.5039 0C33.6914 0.00386389 33.8693 0.0388913 34.047 0.125229C34.2303 0.214775 34.3916 0.349694 34.5135 0.515776C34.5748 0.600966 34.5935 0.63749 34.5135 0.515776C34.677 0.738465 34.766 1.01114 34.766 1.28944C34.7627 1.19095 34.7655 1.22076 34.766 1.28944V20.6311C34.766 21.3432 34.2009 21.9205 33.5039 21.9205H8.26209C7.56506 21.9205 7 21.3432 7 20.6311V1.28944C7 1.05859 7.0613 0.829378 7.1766 0.6314C7.41156 0.226915 7.81853 0.00913636 8.26209 0H33.5039ZM32.2418 3.86832L21.6402 11.9918C21.2364 12.3013 20.6962 12.3322 20.2651 12.0846L20.1257 11.9918L9.52418 3.86832V19.3416H32.2418V3.86832ZM12.0484 2.57888L20.883 9.34844L29.7176 2.57888H12.0484Z"
        fill="white" />
    <path
        d="M4.25508 8.53906H7.96162C9.02333 8.53906 10.0015 9.11486 10.517 10.0432L12.3045 13.2632C12.7726 14.1064 12.7946 15.1263 12.3633 15.9889L10.8871 18.9383L10.91 19.0105L11.0486 19.402C11.3267 20.1364 11.7138 20.872 12.2229 21.553C12.4471 21.8531 12.691 22.1364 12.9551 22.4005C13.216 22.6614 13.4954 22.9023 13.791 23.1239C14.4723 23.6347 15.208 24.0221 15.9424 24.2995C16.0858 24.3537 16.2169 24.3994 16.3336 24.4374L16.4037 24.4593L19.3575 22.9841C20.1423 22.5916 21.0571 22.5744 21.8507 22.9269L22.0849 23.0437L25.3141 24.839C26.2415 25.3546 26.8166 26.3323 26.8166 27.3934V31.1006C26.8166 33.9872 24.084 36.057 21.3458 35.133C15.8727 33.2864 11.0242 30.803 7.78843 27.5672C4.55272 24.3315 2.06935 19.4829 0.222627 14.01C-0.701319 11.2716 1.36844 8.53906 4.25508 8.53906Z"
        fill="#044782" />
    <path
        d="M7.96162 8.53906H4.25508C1.36844 8.53906 -0.701319 11.2716 0.222627 14.01C2.06935 19.4829 4.55272 24.3315 7.78843 27.5672C11.0242 30.803 15.8727 33.2864 21.3458 35.133C24.084 36.057 26.8166 33.9872 26.8166 31.1006V27.3934C26.8166 26.3323 26.2415 25.3546 25.3141 24.839L22.0849 23.0437L21.8507 22.9269C21.0571 22.5744 20.1423 22.5916 19.3575 22.9841L16.4037 24.4593L16.3336 24.4374C16.2169 24.3994 16.0858 24.3537 15.9424 24.2995C15.208 24.0221 14.4723 23.6347 13.791 23.1239C13.4954 22.9023 13.216 22.6614 12.9551 22.4005C12.691 22.1364 12.4471 21.8531 12.2229 21.553C11.7138 20.872 11.3267 20.1364 11.0486 19.402L10.91 19.0105L10.8871 18.9383L12.3633 15.9889C12.7946 15.1263 12.7726 14.1064 12.3045 13.2632L10.517 10.0432C10.0015 9.11486 9.02333 8.53906 7.96162 8.53906ZM4.25508 11.4618H7.96164L9.74916 14.6817L8.02704 18.126C7.88289 18.4143 7.83811 18.7422 7.89965 19.0586C8.11548 20.1682 8.70793 21.7322 9.88175 23.3028C10.1882 23.7127 10.5232 24.102 10.8884 24.4672C11.2493 24.828 11.6335 25.1593 12.0378 25.4624C13.6117 26.6424 15.1795 27.2347 16.2923 27.4481C16.6075 27.5086 16.9339 27.4635 17.2211 27.32L20.6647 25.5982L23.8939 27.3934V31.1006C23.8939 32.0249 23.0871 32.636 22.2802 32.3637C17.1978 30.6488 12.6993 28.3448 9.85513 25.5005C7.01093 22.6563 4.70687 18.1579 2.99196 13.0755C2.71968 12.2686 3.33076 11.4618 4.25508 11.4618Z"
        fill="white" />
</svg>