<svg xmlns="http://www.w3.org/2000/svg" width="24" height="24" viewBox="0 0 24 24" fill="none" class="fingerprint">
  <path fill-rule="evenodd" clip-rule="evenodd" d="M2.04668 5.26287C4.58911 2.7817 8.09451 1.25 11.9595 1.25C15.8473 1.25 19.3713 2.79988 21.9172 5.30703C22.3107 5.69455 22.3156 6.32769 21.9281 6.72121C21.5406 7.11472 20.9074 7.11958 20.5139 6.73207C18.3313 4.58269 15.3072 3.25 11.9595 3.25C8.63143 3.25 5.62323 4.56706 3.44355 6.69423C3.04829 7.07996 2.41518 7.07224 2.02944 6.67698C1.64371 6.28173 1.65143 5.64861 2.04668 5.26287ZM12.0002 7.04165C7.76596 7.04165 4.3335 10.4741 4.3335 14.7084V14.7372C4.3335 15.2894 3.88578 15.7372 3.3335 15.7372C2.78121 15.7372 2.3335 15.2894 2.3335 14.7372V14.7084C2.3335 9.36957 6.66138 5.04165 12.0002 5.04165C12.5525 5.04165 13.0002 5.48937 13.0002 6.04165C13.0002 6.59393 12.5525 7.04165 12.0002 7.04165ZM14.6746 6.40139C14.9033 5.89867 15.4962 5.67652 15.9989 5.9052C19.3403 7.42519 21.6668 10.794 21.6668 14.7084V14.7148C21.6668 15.2671 21.2191 15.7148 20.6668 15.7148C20.1145 15.7148 19.6668 15.2671 19.6668 14.7148V14.7084C19.6668 11.6066 17.8248 8.93301 15.1708 7.7257C14.668 7.49702 14.4459 6.9041 14.6746 6.40139ZM12.0001 10.8334C9.86001 10.8334 8.12512 12.5682 8.12512 14.7084V18.5C8.12512 19.0523 7.67741 19.5 7.12512 19.5C6.57284 19.5 6.12512 19.0523 6.12512 18.5V14.7084C6.12512 11.4637 8.75544 8.83335 12.0001 8.83335C15.2448 8.83335 17.8751 11.4637 17.8751 14.7084V18.5C17.8751 19.0523 17.4274 19.5 16.8751 19.5C16.3228 19.5 15.8751 19.0523 15.8751 18.5V14.7084C15.8751 12.5682 14.1402 10.8334 12.0001 10.8334ZM12.0001 14.625C11.655 14.625 11.3751 14.9048 11.3751 15.25V19.598C11.3751 20.8432 10.5123 22.3482 9.00286 22.7209C8.46667 22.8532 7.9247 22.5259 7.79232 21.9897C7.65995 21.4535 7.9873 20.9115 8.52349 20.7791C8.97697 20.6672 9.37512 20.1024 9.37512 19.598V15.25C9.37512 13.8003 10.5504 12.625 12.0001 12.625C13.4499 12.625 14.6251 13.8003 14.6251 15.25V19.598C14.6251 20.1503 14.1774 20.598 13.6251 20.598C13.0728 20.598 12.6251 20.1503 12.6251 19.598V15.25C12.6251 14.9048 12.3453 14.625 12.0001 14.625Z" fill="#111111"/>
</svg>
