<svg xmlns="http://www.w3.org/2000/svg" width="24" height="24" viewBox="0 0 24 24" fill="none" class="gallery">
  <path d="M19.5833 8.25H9.66667C8.8875 8.25 8.25 8.8875 8.25 9.66667V19.5833C8.25 20.3625 8.8875 21 9.66667 21H19.5833C20.3625 21 21 20.3625 21 19.5833V9.66667C21 8.8875 20.3625 8.25 19.5833 8.25ZM19.5833 9.66667V16.4596L17.9613 14.8376C17.685 14.5613 17.2388 14.5613 16.9625 14.8376L15.3405 16.4596L13.0101 14.1293C12.7338 13.853 12.2876 13.853 12.0114 14.1293L9.68099 16.4596V9.66667H19.5977H19.5833ZM9.66667 18.457L12.5 15.6237L16.4596 19.5833H9.66667V18.457ZM18.457 19.5833L16.332 17.4583L17.4583 16.332L19.5833 18.457V19.5833H18.457Z" fill="black"/>
  <path d="M16.75 12.1459C16.75 13.5626 14.625 13.5626 14.625 12.1459C14.625 10.7293 16.75 10.7293 16.75 12.1459Z" fill="black"/>
  <path d="M6.125 15.3333H5.41667V5.41667H15.3333V6.125C15.3333 6.51459 15.6521 6.83333 16.0417 6.83333C16.4313 6.83333 16.75 6.51459 16.75 6.125V5.41667C16.75 4.6375 16.1125 4 15.3333 4H5.41667C4.6375 4 4 4.6375 4 5.41667V15.3333C4 16.1125 4.6375 16.75 5.41667 16.75H6.125C6.51459 16.75 6.83333 16.4313 6.83333 16.0417C6.83333 15.6521 6.51459 15.3333 6.125 15.3333Z" fill="black"/>
</svg>
