<svg xmlns="http://www.w3.org/2000/svg" width="24" height="24" viewBox="0 0 24 24" fill="none" class="link">
  <path d="M3.31217 3.3278C1.57281 5.06717 1.50775 7.88734 3.2467 9.62629L6.8608 13.2404C7.25133 13.6309 7.88449 13.6309 8.27502 13.2404C8.66554 12.8499 8.66554 12.2167 8.27502 11.8262L4.66092 8.21207C3.73852 7.28967 3.73209 5.73632 4.72639 4.74201C5.72069 3.74771 7.27405 3.75414 8.19645 4.67654L12.4129 8.89299L12.4193 8.89935C13.3353 9.82252 13.3394 11.371 12.3474 12.363C11.9569 12.7535 11.9569 13.3866 12.3474 13.7772C12.7379 14.1677 13.3711 14.1677 13.7616 13.7772C15.501 12.0378 15.566 9.21763 13.8271 7.47868L13.8194 7.47108L9.61066 3.26233C7.87171 1.52338 5.05154 1.58843 3.31217 3.3278Z" fill="#111111"/>
  <path d="M20.7071 20.7064C18.9677 22.4457 16.1476 22.5108 14.4086 20.7718L10.1922 16.5554C10.1815 16.5447 10.1711 16.5339 10.1611 16.5229C10.1494 16.5123 10.138 16.5014 10.1267 16.4901C8.38776 14.7511 8.45281 11.931 10.1922 10.1916C10.5827 9.80109 11.2159 9.80109 11.6064 10.1916C11.9969 10.5821 11.9969 11.2153 11.6064 11.6058C10.6121 12.6001 10.6185 14.1535 11.5409 15.0759C11.5516 15.0865 11.5619 15.0974 11.572 15.1084C11.5837 15.119 11.5951 15.1299 11.6064 15.1412L15.8228 19.3576C16.7452 20.28 18.2986 20.2865 19.2929 19.2922C20.2872 18.2979 20.2808 16.7445 19.3584 15.8221L15.7443 12.208C15.3537 11.8175 15.3537 11.1843 15.7443 10.7938C16.1348 10.4033 16.7679 10.4033 17.1585 10.7938L20.7726 14.4079C22.5115 16.1468 22.4465 18.967 20.7071 20.7064Z" fill="#111111"/>
</svg>
