<svg xmlns="http://www.w3.org/2000/svg" width="24" height="24" viewBox="0 0 24 24" fill="none" class="linkedin">
  <path d="M7.35785 5.7785C7.35754 6.50229 6.94282 7.15362 6.30925 7.42535C5.67569 7.69709 4.94979 7.53496 4.47385 7.01543C3.9979 6.49589 3.86696 5.72269 4.14277 5.06043C4.41858 4.39817 5.04605 3.97909 5.72931 4.00081C6.63682 4.02965 7.35826 4.81716 7.35785 5.7785ZM7.40821 8.87168H4.05041V20H7.40821V8.87168ZM12.7136 8.87168H9.37253V20H12.68V14.1603C12.68 10.9071 16.6842 10.6049 16.6842 14.1603V20H20V12.9515C20 7.4673 14.0735 7.67174 12.68 10.3649L12.7136 8.87168Z" fill="#111111"/>
</svg>
