<svg xmlns="http://www.w3.org/2000/svg" width="24" height="24" viewBox="0 0 24 24" fill="none" class="lock">
  <path d="M13 15C13 14.4477 12.5523 14 12 14C11.4477 14 11 14.4477 11 15V18C11 18.5523 11.4477 19 12 19C12.5523 19 13 18.5523 13 18V15Z" fill="#111111"/>
  <path fill-rule="evenodd" clip-rule="evenodd" d="M11.6424 3.02064C13.7221 2.81279 15.6088 4.19817 16.0204 6.20401C16.1315 6.74501 16.66 7.09358 17.201 6.98254C17.7421 6.87151 18.0906 6.34293 17.9796 5.80192C17.3585 2.77593 14.5269 0.722394 11.4435 1.03055C8.35965 1.33876 5.99809 3.91209 6 7.001L6 10.0238H4.5C3.39543 10.0238 2.5 10.9192 2.5 12.0238V21.0238C2.5 22.1284 3.39543 23.0238 4.5 23.0238H19.5C20.6046 23.0238 21.5 22.1284 21.5 21.0238V12.0238C21.5 10.9192 20.6046 10.0238 19.5 10.0238H8L8 7.00135C7.99793 4.95683 9.56385 3.22837 11.6424 3.02064ZM4.5 12.0238H19.5V21.0238H4.5V12.0238Z" fill="#111111"/>
</svg>
