<svg xmlns="http://www.w3.org/2000/svg" width="24" height="24" viewBox="0 0 24 24" fill="none" class="telephone">
  <path d="M8.49811 2.84375H5.96176C3.98646 2.84375 2.57014 4.71363 3.20239 6.58744C4.46608 10.3325 6.16543 13.6504 8.37961 15.8645C10.5938 18.0788 13.9116 19.7781 17.6568 21.0418C19.5305 21.6741 21.4004 20.2577 21.4004 18.2824V15.7456C21.4004 15.0195 21.0069 14.3505 20.3723 13.9976L18.1626 12.7691L18.0023 12.6892C17.4593 12.448 16.8332 12.4598 16.2962 12.7283L14.275 13.7378L14.227 13.7229C14.1471 13.6969 14.0574 13.6655 13.9593 13.6285C13.4567 13.4386 12.9533 13.1735 12.4871 12.824C12.2848 12.6724 12.0936 12.5075 11.9151 12.329C11.7344 12.1483 11.5675 11.9544 11.4141 11.7491C11.0657 11.2831 10.8008 10.7797 10.6105 10.2772L10.5157 10.0093L10.5 9.95983L11.5101 7.94159C11.8053 7.35137 11.7902 6.65346 11.4699 6.07644L10.2467 3.87301C9.89402 3.23776 9.22463 2.84375 8.49811 2.84375ZM5.96176 4.84375H8.49813L9.72132 7.04711L8.54288 9.40403C8.44424 9.60131 8.4136 9.82566 8.45571 10.0422C8.6034 10.8015 9.00881 11.8717 9.81205 12.9464C10.0217 13.2269 10.251 13.4934 10.5009 13.7432C10.7478 13.9902 11.0108 14.2169 11.2874 14.4243C12.3644 15.2317 13.4373 15.637 14.1987 15.783C14.4144 15.8244 14.6378 15.7936 14.8343 15.6954L17.1907 14.5171L19.4004 15.7456V18.2824C19.4004 18.9149 18.8484 19.3331 18.2962 19.1467C14.8183 17.9733 11.7401 16.3966 9.79383 14.4503C7.84757 12.5041 6.27092 9.42581 5.09742 5.94802C4.9111 5.39582 5.32926 4.84375 5.96176 4.84375Z" fill="#111111"/>
</svg>
